<svg aria-hidden="true" style="position:absolute;width:0;height:0" xmlns="http://www.w3.org/2000/svg" overflow="hidden">
<defs><symbol id="icon-arrow-drop-down" viewBox="0 0 32 32"><path d="M0 8l16 16L32 8H0z"/></symbol>
<symbol id="icon-arrow-drop-up" viewBox="0 0 32 32"><path d="M0 24.155L16 8.368l16 15.787H0z"/></symbol>
<symbol id="icon-chevron-left" viewBox="0 0 32 32"><path d="M20.547 9.88L18.667 8l-8 8 8 8 1.88-1.88L14.44 16l6.107-6.12z"/></symbol>
<symbol id="icon-chevron-right" viewBox="0 0 32 32"><path d="M11.453 9.88L13.333 8l8 8-8 8-1.88-1.88L17.56 16l-6.107-6.12z"/></symbol>
<symbol id="icon-close" viewBox="0 0 24 24"><path d="M19 6.41L17.59 5 12 10.59 6.41 5 5 6.41 10.59 12 5 17.59 6.41 19 12 13.41 17.59 19 19 17.59 13.41 12 19 6.41z"/></symbol><symbol id="icon-copyright" viewBox="0 0 18 18"><path d="M7.56 8.145c.038-.247.12-.465.225-.652.105-.188.255-.346.442-.466.18-.112.405-.165.683-.172.172.007.33.037.473.097.15.068.285.158.39.27.104.113.187.248.255.398.067.15.097.315.104.48h1.343a2.685 2.685 0 00-.21-.967 2.25 2.25 0 00-.525-.758 2.45 2.45 0 00-.81-.495 2.897 2.897 0 00-1.043-.173c-.487 0-.915.083-1.275.256a2.58 2.58 0 00-.9.69c-.24.292-.42.63-.532 1.02-.112.39-.18.794-.18 1.23v.202c0 .435.06.84.173 1.23.112.39.292.727.532 1.012.24.286.54.518.9.683.36.165.787.255 1.275.255.352 0 .682-.06.99-.172.308-.113.578-.27.81-.473a2.29 2.29 0 00.555-.705c.135-.27.218-.555.225-.863h-1.343c-.007.158-.045.3-.112.436a1.181 1.181 0 01-.66.57 1.49 1.49 0 01-.45.075c-.27-.008-.495-.06-.668-.173a1.312 1.312 0 01-.442-.465 1.96 1.96 0 01-.225-.66 5.055 5.055 0 01-.06-.75v-.203c0-.262.022-.51.06-.757zM9 1.5C4.86 1.5 1.5 4.86 1.5 9c0 4.14 3.36 7.5 7.5 7.5 4.14 0 7.5-3.36 7.5-7.5 0-4.14-3.36-7.5-7.5-7.5zM9 15c-3.308 0-6-2.693-6-6 0-3.308 2.692-6 6-6 3.307 0 6 2.692 6 6 0 3.307-2.693 6-6 6z" fill="#000"/></symbol><symbol id="icon-edit" viewBox="0 0 32 32"><path fill="var(--color2, #fff)" d="M32 29.714H0v2.971h32v-2.971zM21.927 1.038L5.402 17.563v7.579h7.579
  L29.506 8.618l-7.579-7.579zM11.87 22.464H8.08v-3.79L21.926 4.828l3.79 3.79L11.87 22.464z"/></symbol><symbol id="icon-favorite-heart" viewBox="0 0 32 32"><path fill="var(--color3, #ff6b09)"
   d="M16 30.72l-2.24-2.24C5.44 21.12 0 16.16 0 10.08c0-4.96 3.84-8.8 8.8-8.8 2.72 0 5.44 1.28 7.2 3.36 1.76-2.08 4.48-3.36 7.2-3.36 4.96 0 8.8 3.84 8.8 8.8 0 6.08-5.44 11.04-13.76 18.4L16 
   30.72z"/></symbol><symbol id="icon-file" viewBox="0 0 32 32"><path fill="var(--color4, #bbb)" d="M20.8 0H1.6v32h28.8V9.6L20.8 0zm0 4.528L25.872 9.6H20.8V4.528zM27.2 28.8H4.8V3.2h12.8v9
   .6h9.6v16z"/><path fill="var(--color4, #bbb)" d="M22.016 15.473l-2.256-2.272-3.728 3.728-3.904-3.904-2.256 2.272 3.888 3.888-3.696 3.712 2.256 2.256 3.712-3.696 3.728 3.728 2.256-2.272-3.728-3.728 3.728-3.712z"/><path fill="none" stroke="var(--color1, #000)" stroke-width="2.286" d="M1.143 1.143h29.714v29.714H1.143V1.143z"/></symbol><symbol id="icon-fullscreen" viewBox="0 0 32 32"><path fill="var(--color2, #fff)" d="M9.333 18.666H6.666v6.667h6.667v-2.667h-4v-4zm-2.666-5.333h2.667v-4h4V6.666H6.667v6.667zm16 9.333h-4v2.667h6.667v-6.667h-2.667v4zm-4-16v2.667h4v4h2.667V6.666h-6.667z"/></symbol><symbol id="icon-heart" viewBox="0 0 32 32"><path fill="var(--color2, #fff)" d="M16 30.22c-.456 0-.895-.165-1.237-.465a361.18 361.18 0 00-3.639-3.13l-.006-.005c-3.224-2.747-6.008-5.12-7.945-7.457-2.165-2.613-3.174-5.09-3.174-7.796 0-2.629.902-5.055 2.539-6.831C4.194 2.739 6.467 1.75 8.939 1.75c1.847 0 3.539.584 5.028 1.736A10.288 10.288 0 0116 5.609c.6-.83 1.281-1.541 2.033-2.123 1.489-1.152 3.181-1.736 5.028-1.736 2.471 0 4.744.99 6.401 2.786C31.099 6.312 32 8.737 32 11.367c0 2.706-1.008 5.184-3.174 7.796-1.937 2.337-4.721 4.71-7.944 7.457-1.102.939-2.35 2.003-3.645 3.136A1.88 1.88 0 0116 30.22zM8.939 3.624c-1.942 0-3.725.775-5.023 2.182-1.317 1.428-2.042 3.403-2.042 5.56 0 2.276.846 4.312 2.743 6.6 1.833 2.212 4.56 4.536 7.717 7.227l.006.005c1.104.941 2.355 2.007 3.657 3.146a430.966 430.966 0 013.669-3.151c3.157-2.691 5.883-5.014 7.717-7.226 1.896-2.289 2.742-4.324 2.742-6.6 0-2.157-.725-4.132-2.042-5.56-1.297-1.407-3.081-2.182-5.023-2.182-1.422 0-2.728.452-3.881 1.344-1.028.795-1.743 1.8-2.163 2.503-.216.362-.596.577-1.016.577s-.801-.216-1.016-.577c-.419-.703-1.135-1.708-2.163-2.503-1.153-.892-2.459-1.344-3.881-1.344z"/></symbol><symbol id="icon-logout" viewBox="0 0 32 32"><path d="M3.236 21.654v7.111h25.529V3.236H3.236v7.111H.32V3.556A3.235 3.235 0 013.556.32h24.889a3.235 3.235 0 013.236 3.236v24.889a3.235 3.235 0 01-3.235 3.236H3.557a3.235 3.235 0 01-3.236-3.236v-6.791h2.916zm14.728-7.112l-4.915-4.916 2.063-2.063 8.436 8.436-8.436 8.436-2.063-2.063 4.915-4.916H.32v-2.915h17.644z"/></symbol><symbol id="icon-menu" viewBox="0 0 32 32"><path d="M4 24h24v-2.667H4V24zm0-6.667h24v-2.667H4v2.667zM4 8v2.667h24V8H4z"/></symbol><symbol id="icon-replay" viewBox="0 0 32 32"><path d="M6.667 16H1.334l6.667 6.667L14.668 16H9.335c0-4.413 3.587-8 8-8s8 3.587 8 8-3.587 8-8 8v2.667c5.893 0 10.667-4.773 10.667-10.667S23.229 5.333 17.335 5.333C11.442 5.333 6.668 10.106 6.668 16z"/></symbol><symbol id="icon-search" viewBox="0 0 24 24"><path d="M15.5 14h-.79l-.28-.27A6.471 6.471 0 0016 9.5 6.5 6.5 0 109.5 16c1.61 0 3.09-.59 4.23-1.57l.27.28v.79l5 4.99L20.49 19l-4.99-5zm-6 0C7.01 14 5 11.99 5 9.5S7.01 5 9.5 5 14 7.01 14 9.5 11.99 14 9.5 14z"/></symbol><symbol id="icon-share" viewBox="0 0 32 32"><path fill="var(--color5, #878686)" d="M25.436 21.333c-1.623 0-3.079.73-4.058 1.878l-9.632-5.955a5.313 5.313 0 000-2.512l9.632-5.955a5.322 5.322 0 004.058 1.878c2.941 0 5.333-2.393 5.333-5.333S28.376.001 25.436.001s-5.333 2.393-5.333 5.333c0 .433.053.853.151 1.256l-9.631 5.955a5.322 5.322 0 00-4.058-1.878c-2.941 0-5.333 2.393-5.333 5.333s2.393 5.333 5.333 5.333c1.624 0 3.079-.73 4.058-1.878l9.631 5.955a5.313 5.313 0 00-.151 1.256c0 2.941 2.393 5.333 5.333 5.333s5.333-2.393 5.333-5.333a5.34 5.34 0 00-5.333-5.333zm0-18.871c1.584 0 2.872 1.288 2.872 2.872s-1.288 2.872-2.872 2.872c-1.583 0-2.872-1.288-2.872-2.872s1.288-2.872 2.872-2.872zM6.564 18.872c-1.583 0-2.872-1.288-2.872-2.872s1.288-2.872 2.872-2.872c1.583 0 2.872 1.288 2.872 2.872s-1.288 2.872-2.872 2.872zm18.872 10.666c-1.583 0-2.872-1.288-2.872-2.872s1.288-2.872 2.872-2.872c1.584 0 2.872 1.288 2.872 2.872s-1.288 2.872-2.872 2.872z"/><path fill="none" stroke="var(--color1, #000)" stroke-width="2" d="M1 1h30v30H1V1z"/></symbol><symbol id="icon-user-profile" viewBox="0 0 32 32"><path d="M29.474 32h-3.242c0-5.47-4.588-9.919-10.232-9.919S5.77 26.531 5.77 32H2.528c0-7.26 6.046-13.161 13.474-13.161 7.427 0 13.472 5.901 13.472 13.161zM16.001 17.785c-4.901 0-8.891-3.991-8.891-8.892C7.108 3.99 11.098 0 16.001 0c4.904 0 8.894 3.988 8.894 8.893s-3.99 8.892-8.894 8.892zm0-14.543c-3.116 0-5.65 2.534-5.65 5.65s2.534 5.65 5.65 5.65c3.118 0 5.652-2.534 5.652-5.65s-2.537-5.65-5.652-5.65z"/></symbol><symbol id="icon-google" viewBox="0 0 32 32"><path fill="var(--color6, #2196f3)" d="M31.743 13.038c.142 0 .258.115.258.258V16c0 1.012-.094 2.002-.274 2.962C30.332 26.419 23.763 32.054 15.888 32A15.961 15.961 0 01.001 15.964C.02 7.144 7.177 0 16.001 0c4.323 0 8.246 1.715 11.126 4.501a.258.258 0 01.004.369l-3.826 3.826a.258.258 0 01-.359.005A10.04 10.04 0 0016 5.924 10.046 10.046 0 005.924 15.931C5.886 21.528 10.412 26.077 16 26.077c4.534 0 8.369-2.995 9.634-7.115h-9.376a.258.258 0 01-.258-.258v-5.408c0-.142.115-.258.258-.258h15.485z"/><path fill="var(--color7, #1e88e5)" d="M31.742 13.038H29.81c.142 0 .258.115.258.258V16c0 1.012-.094 2.002-.274 2.962-1.331 7.114-7.371 12.57-14.761 13.009.283.017.567.026.854.028 7.874.054 14.444-5.581 15.838-13.038.18-.96.274-1.95.274-2.962v-2.704a.258.258 0 00-.258-.258z"/><path fill="var(--color8, #f44336)" d="M6.848 11.78L1.989 8.269C4.715 3.338 9.968 0 16.001 0c4.323 0 8.246 1.715 11.126 4.501a.258.258 0 01.004.369l-3.826 3.826a.257.257 0 01-.358.005 10.04 10.04 0 00-6.946-2.777 10.076 10.076 0 00-9.152 5.857z"/><path fill="var(--color9, #e53935)" d="M5.445 10.767l1.403 1.014a10.083 10.083 0 018.104-5.802l.081-.009c-.317-.03-.639-.046-.964-.046a10.048 10.048 0 00-8.624 4.843zM25.194 4.501a.258.258 0 01.004.369l-3.105 3.105c.297.226.582.468.852.726.101.096.26.094.359-.005L27.13 4.87a.259.259 0 00-.004-.369A15.95 15.95 0 0015.034.03a15.95 15.95 0 0110.16 4.471z"/><path fill="var(--color10, #4caf50)" d="M27.737 26.874A15.955 15.955 0 0116 32c-6.264 0-11.687-3.6-14.314-8.844l4.961-3.4a10.08 10.08 0 0016.231 3.607l4.859 3.51z"/><path fill="var(--color11, #43a047)" d="M6.647 19.756l-1.463 1.003a10.075 10.075 0 009.848 5.272 10.084 10.084 0 01-8.385-6.274zM16 32c4.638 0 8.815-1.974 11.737-5.126l-1.19-.86a15.972 15.972 0 01-11.51 5.957c.319.019.64.029.963.029z"/><path fill="var(--color12, #ffc107)" d="M5.924 16c0 1.328.257 2.595.724 3.756l-4.961 3.4A15.928 15.928 0 01.001 16c0-2.804.721-5.439 1.988-7.731l4.859 3.511A10.034 10.034 0 005.924 16z"/><path fill="var(--color13, #ffb300)" d="M5.184 20.759l1.463-1.003A10.044 10.044 0 015.923 16c0-1.507.331-2.937.924-4.22l-1.403-1.014a10.054 10.054 0 00-1.452 5.164 10.036 10.036 0 001.192 4.829z"/></symbol></defs></svg>
   